<svg width="81" height="65" viewBox="0 0 81 65" fill="none" xmlns="http://www.w3.org/2000/svg">
<path d="M78.975 26.4062H70.875V18.2812C70.875 17.6888 70.6641 17.2233 70.2422 16.8848C69.9047 16.4616 69.4406 16.25 68.85 16.25H64.8C64.2094 16.25 63.7031 16.4616 63.2812 16.8848C62.9438 17.2233 62.775 17.6888 62.775 18.2812V26.4062H54.675C54.0844 26.4062 53.5781 26.6178 53.1562 27.041C52.8188 27.3796 52.65 27.8451 52.65 28.4375V32.5C52.65 33.0924 52.8188 33.6003 53.1562 34.0234C53.5781 34.362 54.0844 34.5312 54.675 34.5312H62.775V42.6562C62.775 43.2487 62.9438 43.7565 63.2812 44.1797C63.7031 44.5182 64.2094 44.6875 64.8 44.6875H68.85C69.4406 44.6875 69.9047 44.5182 70.2422 44.1797C70.6641 43.7565 70.875 43.2487 70.875 42.6562V34.5312H78.975C79.5656 34.5312 80.0297 34.362 80.3672 34.0234C80.7891 33.6003 81 33.0924 81 32.5V28.4375C81 27.8451 80.7891 27.3796 80.3672 27.041C80.0297 26.6178 79.5656 26.4062 78.975 26.4062ZM28.35 32.5C31.3031 32.5 34.0031 31.7806 36.45 30.3418C38.9813 28.903 40.9641 26.9564 42.3984 24.502C43.8328 21.9629 44.55 19.2122 44.55 16.25C44.55 13.2878 43.8328 10.5794 42.3984 8.125C40.9641 5.58594 38.9813 3.59701 36.45 2.1582C34.0031 0.719401 31.3031 0 28.35 0C25.3969 0 22.6547 0.719401 20.1234 2.1582C17.6766 3.59701 15.7359 5.58594 14.3016 8.125C12.8672 10.5794 12.15 13.2878 12.15 16.25C12.15 19.2122 12.8672 21.9629 14.3016 24.502C15.7359 26.9564 17.6766 28.903 20.1234 30.3418C22.6547 31.7806 25.3969 32.5 28.35 32.5ZM39.7406 36.5625H37.5891C34.6359 37.9167 31.5562 38.5938 28.35 38.5938C25.1438 38.5938 22.0641 37.9167 19.1109 36.5625H16.9594C13.9219 36.5625 11.0953 37.3242 8.47969 38.8477C5.86406 40.3711 3.79688 42.4447 2.27813 45.0684C0.759375 47.6921 0 50.5273 0 53.5742V58.9062C0 60.599 0.590625 62.0378 1.77188 63.2227C2.95312 64.4075 4.3875 65 6.075 65H50.625C52.3125 65 53.7469 64.4075 54.9281 63.2227C56.1094 62.0378 56.7 60.599 56.7 58.9062V53.5742C56.7 50.5273 55.9406 47.6921 54.4219 45.0684C52.9031 42.4447 50.8359 40.3711 48.2203 38.8477C45.6047 37.3242 42.7781 36.5625 39.7406 36.5625Z" fill="white"/>
</svg>
