<svg width="88" height="57" viewBox="0 0 88 57" fill="none" xmlns="http://www.w3.org/2000/svg">
<path d="M59.3585 0C54.1999 0 49.4264 1.30242 45.0377 3.90726C40.6491 6.43548 37.1459 9.88306 34.5281 14.25C31.9874 18.6169 30.717 23.3669 30.717 28.5C30.717 33.6331 31.9874 38.3831 34.5281 42.75C37.1459 47.1169 40.6491 50.5645 45.0377 53.0927C49.4264 55.6976 54.1999 57 59.3585 57C64.517 57 69.2906 55.6976 73.6792 53.0927C78.0679 50.5645 81.5326 47.1169 84.0733 42.75C86.6911 38.3831 88 33.6331 88 28.5C88 23.3669 86.6911 18.6169 84.0733 14.25C81.5326 9.88306 78.0679 6.43548 73.6792 3.90726C69.2906 1.30242 64.517 0 59.3585 0ZM59.3585 51.4839C55.2009 51.4839 51.3512 50.4496 47.8095 48.381C44.2678 46.3125 41.4575 43.5161 39.3787 39.9919C37.2999 36.4677 36.2605 32.6371 36.2605 28.5C36.2605 24.3629 37.2999 20.5323 39.3787 17.0081C41.4575 13.4839 44.2678 10.6875 47.8095 8.61895C51.3512 6.5504 55.2009 5.51613 59.3585 5.51613C63.5161 5.51613 67.3658 6.5504 70.9075 8.61895C74.4492 10.6875 77.2594 13.4839 79.3383 17.0081C81.4171 20.5323 82.4565 24.3629 82.4565 28.5C82.4565 32.6371 81.4171 36.4677 79.3383 39.9919C77.2594 43.5161 74.4492 46.3125 70.9075 48.381C67.3658 50.4496 63.5161 51.4839 59.3585 51.4839ZM66.5189 39.5323L56.7022 32.4073C56.3173 32.1008 56.1248 31.7177 56.1248 31.2581V12.4113C56.1248 12.0282 56.2403 11.7218 56.4712 11.4919C56.7792 11.1855 57.1257 11.0323 57.5107 11.0323H61.2063C61.5913 11.0323 61.8993 11.1855 62.1302 11.4919C62.4382 11.7218 62.5922 12.0282 62.5922 12.4113V28.7298L70.33 34.246C70.638 34.4758 70.792 34.7823 70.792 35.1653C70.869 35.5484 70.792 35.8931 70.561 36.1996L68.4822 39.1875C68.2512 39.4939 67.9432 39.6855 67.5583 39.7621C67.1733 39.8387 66.8268 39.7621 66.5189 39.5323Z" fill="white"/>
<path d="M19.8208 11.0489L22.1038 8.77717C22.5881 8.29529 23.1761 8.05435 23.8679 8.05435C24.5597 8.05435 25.1478 8.29529 25.6321 8.77717L45.7642 28.8098C46.2484 29.2917 46.4906 29.8768 46.4906 30.5652C46.4906 31.2536 46.2484 31.8388 45.7642 32.3207L25.6321 52.3533C25.1478 52.8351 24.5597 53.0761 23.8679 53.0761C23.1761 53.0761 22.5881 52.8351 22.1038 52.3533L19.8208 50.0815C19.2673 49.5996 18.9906 49.0145 18.9906 48.3261C19.0597 47.6377 19.3365 47.0525 19.8208 46.5707L32.2736 34.6957H2.49057C1.79874 34.6957 1.21069 34.4547 0.726415 33.9728C0.242138 33.4909 0 32.9058 0 32.2174V28.913C0 28.2246 0.242138 27.6395 0.726415 27.1576C1.21069 26.6757 1.79874 26.4348 2.49057 26.4348H32.2736L19.8208 14.5598C19.3365 14.0779 19.0597 13.4928 18.9906 12.8043C18.9906 12.1159 19.2673 11.5308 19.8208 11.0489Z" fill="white"/>
</svg>
