<svg viewBox="0 0 1086 682" fill="none" xmlns="http://www.w3.org/2000/svg">
<path d="M141.655 541.317C140.035 543.284 138.473 544.847 136.968 546.004C135.464 547.161 133.323 547.74 130.545 547.74C127.883 547.74 125.453 547.103 123.254 545.83C121.171 544.557 118.798 543.168 116.137 541.664C113.475 540.044 110.35 538.597 106.762 537.324C103.175 536.051 98.719 535.414 93.3953 535.414C86.7986 535.414 81.0699 536.63 76.2092 539.06C71.4642 541.49 67.5293 544.962 64.4046 549.476C61.2798 553.989 58.9652 559.544 57.4607 566.141C55.9562 572.622 55.2039 579.971 55.2039 588.188C55.2039 605.432 58.5023 618.683 65.099 627.942C71.8114 637.2 81.0121 641.83 92.7009 641.83C98.9504 641.83 103.869 641.077 107.457 639.573C111.16 637.953 114.285 636.217 116.831 634.365C119.377 632.397 121.692 630.604 123.775 628.983C125.974 627.363 128.693 626.553 131.934 626.553C136.216 626.553 139.456 628.115 141.655 631.24L157.279 650.509C151.724 656.875 145.88 662.083 139.746 666.133C133.612 670.068 127.305 673.193 120.824 675.507C114.458 677.706 108.035 679.211 101.554 680.021C95.0734 680.947 88.7661 681.41 82.6323 681.41C71.6378 681.41 61.1062 679.327 51.0376 675.16C41.0847 670.994 32.2891 664.976 24.6508 657.106C17.1283 649.121 11.1102 639.341 6.5967 627.768C2.1989 616.195 0 603.002 0 588.188C0 575.226 1.90957 563.132 5.72871 551.906C9.66358 540.564 15.3923 530.785 22.9148 522.568C30.5531 514.236 39.9274 507.697 51.0376 502.952C62.2636 498.207 75.2255 495.834 89.9234 495.834C104.043 495.834 116.426 498.091 127.073 502.605C137.72 507.118 147.326 513.715 155.89 522.395L141.655 541.317Z" fill="black"/>
<path d="M218.152 418.757V678.632H164.337V418.757H218.152Z" fill="black"/>
<path d="M323.618 495.834C337.274 495.834 349.715 497.975 360.941 502.257C372.167 506.539 381.773 512.673 389.758 520.659C397.86 528.644 404.109 538.366 408.507 549.823C413.02 561.165 415.277 573.953 415.277 588.188C415.277 602.539 413.02 615.501 408.507 627.074C404.109 638.531 397.86 648.311 389.758 656.412C381.773 664.397 372.167 670.589 360.941 674.987C349.715 679.269 337.274 681.41 323.618 681.41C309.846 681.41 297.289 679.269 285.947 674.987C274.721 670.589 265 664.397 256.783 656.412C248.682 648.311 242.374 638.531 237.861 627.074C233.463 615.501 231.264 602.539 231.264 588.188C231.264 573.953 233.463 561.165 237.861 549.823C242.374 538.366 248.682 528.644 256.783 520.659C265 512.673 274.721 506.539 285.947 502.257C297.289 497.975 309.846 495.834 323.618 495.834ZM323.618 641.482C336.001 641.482 345.086 637.142 350.873 628.463C356.775 619.667 359.726 606.358 359.726 588.535C359.726 570.713 356.775 557.461 350.873 548.781C345.086 540.102 336.001 535.762 323.618 535.762C310.887 535.762 301.571 540.102 295.669 548.781C289.766 557.461 286.815 570.713 286.815 588.535C286.815 606.358 289.766 619.667 295.669 628.463C301.571 637.142 310.887 641.482 323.618 641.482Z" fill="black"/>
<path d="M560.771 541.317C559.15 543.284 557.588 544.847 556.084 546.004C554.579 547.161 552.438 547.74 549.66 547.74C546.999 547.74 544.568 547.103 542.369 545.83C540.286 544.557 537.914 543.168 535.252 541.664C532.59 540.044 529.465 538.597 525.878 537.324C522.29 536.051 517.834 535.414 512.511 535.414C505.914 535.414 500.185 536.63 495.325 539.06C490.58 541.49 486.645 544.962 483.52 549.476C480.395 553.989 478.081 559.544 476.576 566.141C475.071 572.622 474.319 579.971 474.319 588.188C474.319 605.432 477.618 618.683 484.214 627.942C490.927 637.2 500.127 641.83 511.816 641.83C518.066 641.83 522.984 641.077 526.572 639.573C530.275 637.953 533.4 636.217 535.946 634.365C538.492 632.397 540.807 630.604 542.89 628.983C545.089 627.363 547.809 626.553 551.049 626.553C555.331 626.553 558.572 628.115 560.771 631.24L576.394 650.509C570.839 656.875 564.995 662.083 558.861 666.133C552.727 670.068 546.42 673.193 539.939 675.507C533.574 677.706 527.151 679.211 520.67 680.021C514.189 680.947 507.881 681.41 501.748 681.41C490.753 681.41 480.222 679.327 470.153 675.16C460.2 670.994 451.404 664.976 443.766 657.106C436.244 649.121 430.226 639.341 425.712 627.768C421.314 616.195 419.115 603.002 419.115 588.188C419.115 575.226 421.025 563.132 424.844 551.906C428.779 540.564 434.508 530.785 442.03 522.568C449.668 514.236 459.043 507.697 470.153 502.952C481.379 498.207 494.341 495.834 509.039 495.834C523.158 495.834 535.541 498.091 546.189 502.605C556.836 507.118 566.442 513.715 575.006 522.395L560.771 541.317Z" fill="black"/>
<path d="M637.267 418.757V564.405H645.253C648.609 564.405 651.155 563.942 652.891 563.016C654.627 561.975 656.363 560.297 658.099 557.982L692.124 507.292C694.207 504.398 696.58 502.257 699.242 500.869C701.903 499.364 705.317 498.612 709.484 498.612H758.785L712.261 562.669C707.864 568.456 702.656 573.201 696.638 576.904C699.299 578.872 701.73 581.186 703.929 583.848C706.128 586.394 708.211 589.287 710.178 592.528L760.869 678.632H712.261C708.211 678.632 704.739 677.996 701.846 676.723C698.952 675.334 696.522 672.961 694.554 669.605L660.529 605.895C658.909 603.002 657.231 601.15 655.495 600.34C653.759 599.414 651.155 598.951 647.683 598.951H637.267V678.632H583.452V418.757H637.267Z" fill="black"/>
<path d="M756.214 651.377C756.214 647.211 756.966 643.334 758.471 639.746C760.091 636.159 762.232 633.034 764.894 630.372C767.671 627.71 770.912 625.627 774.615 624.123C778.319 622.502 782.369 621.692 786.767 621.692C791.049 621.692 795.042 622.502 798.745 624.123C802.449 625.627 805.689 627.71 808.467 630.372C811.244 633.034 813.385 636.159 814.89 639.746C816.51 643.334 817.32 647.211 817.32 651.377C817.32 655.544 816.51 659.479 814.89 663.182C813.385 666.77 811.244 669.894 808.467 672.556C805.689 675.218 802.449 677.301 798.745 678.806C795.042 680.31 791.049 681.063 786.767 681.063C782.369 681.063 778.319 680.31 774.615 678.806C770.912 677.301 767.671 675.218 764.894 672.556C762.232 669.894 760.091 666.77 758.471 663.182C756.966 659.479 756.214 655.544 756.214 651.377Z" fill="black"/>
<path d="M887.717 498.612V678.632H833.902V498.612H887.717ZM893.272 449.31C893.272 453.592 892.404 457.643 890.668 461.462C888.932 465.165 886.559 468.464 883.55 471.357C880.541 474.135 877.012 476.391 872.961 478.127C869.026 479.748 864.802 480.558 860.288 480.558C855.891 480.558 851.782 479.748 847.963 478.127C844.144 476.391 840.73 474.135 837.721 471.357C834.827 468.464 832.513 465.165 830.777 461.462C829.157 457.643 828.346 453.592 828.346 449.31C828.346 444.912 829.157 440.804 830.777 436.985C832.513 433.166 834.827 429.809 837.721 426.916C840.73 424.023 844.144 421.766 847.963 420.146C851.782 418.526 855.891 417.716 860.288 417.716C864.802 417.716 869.026 418.526 872.961 420.146C877.012 421.766 880.541 424.023 883.55 426.916C886.559 429.809 888.932 433.166 890.668 436.985C892.404 440.804 893.272 444.912 893.272 449.31Z" fill="black"/>
<path d="M994.341 495.834C1008 495.834 1020.44 497.975 1031.66 502.257C1042.89 506.539 1052.5 512.673 1060.48 520.659C1068.58 528.644 1074.83 538.366 1079.23 549.823C1083.74 561.165 1086 573.953 1086 588.188C1086 602.539 1083.74 615.501 1079.23 627.074C1074.83 638.531 1068.58 648.311 1060.48 656.412C1052.5 664.397 1042.89 670.589 1031.66 674.987C1020.44 679.269 1008 681.41 994.341 681.41C980.569 681.41 968.012 679.269 956.67 674.987C945.444 670.589 935.723 664.397 927.506 656.412C919.405 648.311 913.097 638.531 908.584 627.074C904.186 615.501 901.987 602.539 901.987 588.188C901.987 573.953 904.186 561.165 908.584 549.823C913.097 538.366 919.405 528.644 927.506 520.659C935.723 512.673 945.444 506.539 956.67 502.257C968.012 497.975 980.569 495.834 994.341 495.834ZM994.341 641.482C1006.72 641.482 1015.81 637.142 1021.6 628.463C1027.5 619.667 1030.45 606.358 1030.45 588.535C1030.45 570.713 1027.5 557.461 1021.6 548.781C1015.81 540.102 1006.72 535.762 994.341 535.762C981.61 535.762 972.294 540.102 966.391 548.781C960.489 557.461 957.538 570.713 957.538 588.535C957.538 606.358 960.489 619.667 966.391 628.463C972.294 637.142 981.61 641.482 994.341 641.482Z" fill="black"/>
<path d="M460.807 289.14C460.619 288.952 460.336 288.575 459.96 288.01C455.627 283.489 452.425 279.063 450.353 274.73C446.963 267.196 445.267 257.495 445.267 245.628C445.267 234.703 441.877 225.19 435.096 217.091C428.314 208.991 419.65 203.905 409.101 201.833V195.9C409.101 193.451 408.159 191.379 406.276 189.684C404.58 187.8 402.508 186.858 400.06 186.858C397.611 186.858 395.445 187.8 393.561 189.684C391.866 191.379 391.018 193.451 391.018 195.9V201.833C380.47 203.905 371.805 208.991 365.024 217.091C358.243 225.19 354.852 234.703 354.852 245.628C354.852 257.495 353.157 267.196 349.766 274.73C347.694 279.063 344.492 283.489 340.16 288.01L339.312 289.14C337.617 291.024 336.769 293.19 336.769 295.639C336.769 297.899 337.617 299.971 339.312 301.855C341.007 303.55 343.173 304.398 345.81 304.398H454.309C456.946 304.398 459.112 303.55 460.807 301.855C462.503 299.971 463.35 297.899 463.35 295.639C463.35 293.19 462.503 291.024 460.807 289.14ZM355.982 290.836C364.27 279.722 368.414 264.747 368.414 245.911V245.628C368.414 239.977 369.827 234.703 372.653 229.805C375.478 224.908 379.339 221.046 384.237 218.221C389.134 215.395 394.409 213.983 400.06 213.983C405.711 213.983 410.985 215.395 415.882 218.221C420.78 221.046 424.641 224.908 427.467 229.805C430.292 234.703 431.705 239.977 431.705 245.628V245.911C431.705 264.747 435.849 279.722 444.137 290.836H355.982ZM400.06 331.523C404.957 331.523 409.195 329.733 412.774 326.154C416.353 322.764 418.143 318.525 418.143 313.439H381.977C381.977 318.525 383.766 322.764 387.345 326.154C390.924 329.733 395.162 331.523 400.06 331.523Z" fill="black"/>
<path d="M460.807 289.14C460.619 288.952 460.336 288.575 459.96 288.01C455.627 283.489 452.425 279.063 450.353 274.73C446.963 267.196 445.267 257.495 445.267 245.628C445.267 234.703 441.877 225.19 435.096 217.091C428.314 208.991 419.65 203.905 409.101 201.833V195.9C409.101 193.451 408.159 191.379 406.276 189.684C404.58 187.8 402.508 186.858 400.06 186.858C397.611 186.858 395.445 187.8 393.561 189.684C391.866 191.379 391.018 193.451 391.018 195.9V201.833C380.47 203.905 371.805 208.991 365.024 217.091C358.243 225.19 354.852 234.703 354.852 245.628C354.852 257.495 353.157 267.196 349.766 274.73C347.694 279.063 344.492 283.489 340.16 288.01L339.312 289.14C337.617 291.024 336.769 293.19 336.769 295.639C336.769 297.899 337.617 299.971 339.312 301.855C341.007 303.55 343.173 304.398 345.81 304.398H454.309C456.946 304.398 459.112 303.55 460.807 301.855C462.503 299.971 463.35 297.899 463.35 295.639C463.35 293.19 462.503 291.024 460.807 289.14ZM355.982 290.836C364.27 279.722 368.414 264.747 368.414 245.911V245.628C368.414 239.977 369.827 234.703 372.653 229.805C375.478 224.908 379.339 221.046 384.237 218.221C389.134 215.395 394.409 213.983 400.06 213.983C405.711 213.983 410.985 215.395 415.882 218.221C420.78 221.046 424.641 224.908 427.467 229.805C430.292 234.703 431.705 239.977 431.705 245.628V245.911C431.705 264.747 435.849 279.722 444.137 290.836H355.982ZM400.06 331.523C404.957 331.523 409.195 329.733 412.774 326.154C416.353 322.764 418.143 318.525 418.143 313.439H381.977C381.977 318.525 383.766 322.764 387.345 326.154C390.924 329.733 395.162 331.523 400.06 331.523Z" fill="url(#paint0_linear)"/>
<path d="M387.804 119.475C384.988 118.137 382.069 117.599 379.045 117.863C376.022 118.127 373.234 119.102 370.683 120.787C368.131 122.471 366.09 124.702 364.558 127.478L362.694 130.708L359.464 128.843C356.75 127.205 353.866 126.294 350.814 126.11C347.762 125.927 344.861 126.477 342.11 127.76C339.36 129.043 337.1 130.968 335.331 133.535C333.29 136.448 332.193 139.654 332.038 143.154C331.884 146.654 332.59 149.968 334.157 153.097C335.785 156.119 338.118 158.543 341.156 160.368L372.528 179.127C373.604 179.748 374.695 179.911 375.798 179.615C376.902 179.32 377.765 178.634 378.386 177.557L396.142 145.498C397.882 142.483 398.66 139.272 398.475 135.863C398.352 132.347 397.348 129.112 395.465 126.159C393.581 123.205 391.028 120.977 387.804 119.475Z" fill="black"/>
<path d="M387.804 119.475C384.988 118.137 382.069 117.599 379.045 117.863C376.022 118.127 373.234 119.102 370.683 120.787C368.131 122.471 366.09 124.702 364.558 127.478L362.694 130.708L359.464 128.843C356.75 127.205 353.866 126.294 350.814 126.11C347.762 125.927 344.861 126.477 342.11 127.76C339.36 129.043 337.1 130.968 335.331 133.535C333.29 136.448 332.193 139.654 332.038 143.154C331.884 146.654 332.59 149.968 334.157 153.097C335.785 156.119 338.118 158.543 341.156 160.368L372.528 179.127C373.604 179.748 374.695 179.911 375.798 179.615C376.902 179.32 377.765 178.634 378.386 177.557L396.142 145.498C397.882 142.483 398.66 139.272 398.475 135.863C398.352 132.347 397.348 129.112 395.465 126.159C393.581 123.205 391.028 120.977 387.804 119.475Z" fill="url(#paint1_linear)"/>
<path d="M459.492 121.941C458.646 119.406 457.243 117.283 455.283 115.572C453.324 113.861 451.065 112.718 448.508 112.143C445.951 111.568 443.36 111.632 440.735 112.336L437.632 113.103L436.865 110C436.265 107.349 435.114 105.027 433.414 103.032C431.714 101.038 429.65 99.5721 427.223 98.6354C424.796 97.6986 422.264 97.4464 419.627 97.8788C416.615 98.349 413.982 99.5761 411.729 101.56C409.475 103.544 407.847 105.95 406.845 108.777C405.946 111.579 405.835 114.46 406.512 117.421L413.564 147.948C413.82 148.982 414.367 149.752 415.206 150.259C416.044 150.765 416.981 150.89 418.015 150.634L448.37 142.554C451.267 141.838 453.713 140.41 455.708 138.27C457.807 136.105 459.209 133.563 459.915 130.645C460.62 127.726 460.479 124.825 459.492 121.941Z" fill="black"/>
<path d="M459.492 121.941C458.646 119.406 457.243 117.283 455.283 115.572C453.324 113.861 451.065 112.718 448.508 112.143C445.951 111.568 443.36 111.632 440.735 112.336L437.632 113.103L436.865 110C436.265 107.349 435.114 105.027 433.414 103.032C431.714 101.038 429.65 99.5721 427.223 98.6354C424.796 97.6986 422.264 97.4464 419.627 97.8788C416.615 98.349 413.982 99.5761 411.729 101.56C409.475 103.544 407.847 105.95 406.845 108.777C405.946 111.579 405.835 114.46 406.512 117.421L413.564 147.948C413.82 148.982 414.367 149.752 415.206 150.259C416.044 150.765 416.981 150.89 418.015 150.634L448.37 142.554C451.267 141.838 453.713 140.41 455.708 138.27C457.807 136.105 459.209 133.563 459.915 130.645C460.62 127.726 460.479 124.825 459.492 121.941Z" fill="url(#paint2_linear)"/>
<path d="M404.392 60.1826C402.697 58.7385 400.782 57.8281 398.647 57.4513C396.512 57.0746 394.409 57.2316 392.337 57.9223C390.265 58.6129 388.444 59.7745 386.874 61.407L384.99 63.2907L383.107 61.407C381.537 59.7745 379.716 58.6129 377.644 57.9223C375.572 57.2316 373.469 57.0746 371.334 57.4513C369.199 57.8281 367.284 58.7385 365.589 60.1826C363.642 61.8151 362.292 63.8244 361.539 66.2103C360.786 68.5963 360.66 71.0136 361.162 73.4624C361.727 75.8483 362.889 77.9517 364.647 79.7726L382.824 98.5149C383.452 99.1428 384.174 99.4568 384.99 99.4568C385.807 99.4568 386.529 99.1428 387.157 98.5149L405.334 79.6784C407.092 77.9204 408.222 75.8483 408.724 73.4624C409.29 71.0136 409.195 68.5963 408.442 66.2103C407.688 63.8244 406.338 61.8151 404.392 60.1826Z" fill="black"/>
<path d="M404.392 60.1826C402.697 58.7385 400.782 57.8281 398.647 57.4513C396.512 57.0746 394.409 57.2316 392.337 57.9223C390.265 58.6129 388.444 59.7745 386.874 61.407L384.99 63.2907L383.107 61.407C381.537 59.7745 379.716 58.6129 377.644 57.9223C375.572 57.2316 373.469 57.0746 371.334 57.4513C369.199 57.8281 367.284 58.7385 365.589 60.1826C363.642 61.8151 362.292 63.8244 361.539 66.2103C360.786 68.5963 360.66 71.0136 361.162 73.4624C361.727 75.8483 362.889 77.9517 364.647 79.7726L382.824 98.5149C383.452 99.1428 384.174 99.4568 384.99 99.4568C385.807 99.4568 386.529 99.1428 387.157 98.5149L405.334 79.6784C407.092 77.9204 408.222 75.8483 408.724 73.4624C409.29 71.0136 409.195 68.5963 408.442 66.2103C407.688 63.8244 406.338 61.8151 404.392 60.1826Z" fill="url(#paint3_linear)"/>
<path d="M500.722 0H298.192C286.136 0 275.889 4.21938 267.451 12.6581C259.012 21.0969 254.792 31.3439 254.792 43.3993V419.527C254.792 431.582 259.012 441.829 267.451 450.268C275.889 458.707 286.136 462.926 298.192 462.926H500.722C512.777 462.926 523.024 458.707 531.463 450.268C539.902 441.829 544.121 431.582 544.121 419.527V43.3993C544.121 31.3439 539.902 21.0969 531.463 12.6581C523.024 4.21938 512.777 0 500.722 0ZM399.457 433.993C391.621 433.993 384.689 430.979 378.661 424.952C373.236 419.527 370.524 412.896 370.524 405.06C370.524 397.224 373.236 390.594 378.661 385.169C384.689 379.141 391.621 376.127 399.457 376.127C407.293 376.127 413.923 379.141 419.348 385.169C425.376 390.594 428.39 397.224 428.39 405.06C428.39 412.896 425.376 419.527 419.348 424.952C413.923 430.979 407.293 433.993 399.457 433.993ZM500.722 336.345C500.722 339.359 499.516 342.071 497.105 344.482C495.297 346.29 492.886 347.195 489.872 347.195H309.042C306.028 347.195 303.315 346.29 300.904 344.482C299.096 342.071 298.192 339.359 298.192 336.345V54.2491C298.192 51.2353 299.096 48.8242 300.904 47.0159C303.315 44.6048 306.028 43.3993 309.042 43.3993H489.872C492.886 43.3993 495.297 44.6048 497.105 47.0159C499.516 48.8242 500.722 51.2353 500.722 54.2491V336.345Z" fill="black"/>
<path d="M500.722 0H298.192C286.136 0 275.889 4.21938 267.451 12.6581C259.012 21.0969 254.792 31.3439 254.792 43.3993V419.527C254.792 431.582 259.012 441.829 267.451 450.268C275.889 458.707 286.136 462.926 298.192 462.926H500.722C512.777 462.926 523.024 458.707 531.463 450.268C539.902 441.829 544.121 431.582 544.121 419.527V43.3993C544.121 31.3439 539.902 21.0969 531.463 12.6581C523.024 4.21938 512.777 0 500.722 0ZM399.457 433.993C391.621 433.993 384.689 430.979 378.661 424.952C373.236 419.527 370.524 412.896 370.524 405.06C370.524 397.224 373.236 390.594 378.661 385.169C384.689 379.141 391.621 376.127 399.457 376.127C407.293 376.127 413.923 379.141 419.348 385.169C425.376 390.594 428.39 397.224 428.39 405.06C428.39 412.896 425.376 419.527 419.348 424.952C413.923 430.979 407.293 433.993 399.457 433.993ZM500.722 336.345C500.722 339.359 499.516 342.071 497.105 344.482C495.297 346.29 492.886 347.195 489.872 347.195H309.042C306.028 347.195 303.315 346.29 300.904 344.482C299.096 342.071 298.192 339.359 298.192 336.345V54.2491C298.192 51.2353 299.096 48.8242 300.904 47.0159C303.315 44.6048 306.028 43.3993 309.042 43.3993H489.872C492.886 43.3993 495.297 44.6048 497.105 47.0159C499.516 48.8242 500.722 51.2353 500.722 54.2491V336.345Z" fill="url(#paint4_linear)"/>
<defs>
<linearGradient id="paint0_linear" x1="399.457" y1="0" x2="399.457" y2="462.926" gradientUnits="userSpaceOnUse">
<stop stop-color="#CB2D3E"/>
<stop offset="1" stop-color="#EF473A"/>
</linearGradient>
<linearGradient id="paint1_linear" x1="399.457" y1="0" x2="399.457" y2="462.926" gradientUnits="userSpaceOnUse">
<stop stop-color="#CB2D3E"/>
<stop offset="1" stop-color="#EF473A"/>
</linearGradient>
<linearGradient id="paint2_linear" x1="399.457" y1="0" x2="399.457" y2="462.926" gradientUnits="userSpaceOnUse">
<stop stop-color="#CB2D3E"/>
<stop offset="1" stop-color="#EF473A"/>
</linearGradient>
<linearGradient id="paint3_linear" x1="399.457" y1="0" x2="399.457" y2="462.926" gradientUnits="userSpaceOnUse">
<stop stop-color="#CB2D3E"/>
<stop offset="1" stop-color="#EF473A"/>
</linearGradient>
<linearGradient id="paint4_linear" x1="399.457" y1="0" x2="399.457" y2="462.926" gradientUnits="userSpaceOnUse">
<stop stop-color="#CB2D3E"/>
<stop offset="1" stop-color="#EF473A"/>
</linearGradient>
</defs>
</svg>