<svg width="61" height="68" viewBox="0 0 61 68" fill="none" xmlns="http://www.w3.org/2000/svg">
<path d="M59.3661 21.25H1.63393C1.18006 21.25 0.771577 21.1172 0.408482 20.8516C0.136161 20.4974 0 20.099 0 19.6562V14.875C0 13.1042 0.635417 11.599 1.90625 10.3594C3.17708 9.11979 4.72024 8.5 6.53571 8.5H13.0714V1.59375C13.0714 1.15104 13.2076 0.796875 13.4799 0.53125C13.843 0.177083 14.2515 0 14.7054 0H20.1518C20.6057 0 20.9688 0.177083 21.2411 0.53125C21.6042 0.796875 21.7857 1.15104 21.7857 1.59375V8.5H39.2143V1.59375C39.2143 1.15104 39.3504 0.796875 39.6228 0.53125C39.9859 0.177083 40.3943 0 40.8482 0H46.2946C46.7485 0 47.1116 0.177083 47.3839 0.53125C47.747 0.796875 47.9286 1.15104 47.9286 1.59375V8.5H54.4643C56.2798 8.5 57.8229 9.11979 59.0937 10.3594C60.3646 11.599 61 13.1042 61 14.875V19.6562C61 20.099 60.8185 20.4974 60.4554 20.8516C60.183 21.1172 59.8199 21.25 59.3661 21.25ZM1.63393 25.5H59.3661C59.8199 25.5 60.183 25.6771 60.4554 26.0312C60.8185 26.2969 61 26.651 61 27.0938V61.625C61 63.3958 60.3646 64.901 59.0937 66.1406C57.8229 67.3802 56.2798 68 54.4643 68H6.53571C4.72024 68 3.17708 67.3802 1.90625 66.1406C0.635417 64.901 0 63.3958 0 61.625V27.0938C0 26.651 0.136161 26.2969 0.408482 26.0312C0.771577 25.6771 1.18006 25.5 1.63393 25.5ZM17.4286 52.5938C17.4286 52.151 17.247 51.7969 16.8839 51.5312C16.6116 51.1771 16.2485 51 15.7946 51H10.3482C9.89435 51 9.48586 51.1771 9.12277 51.5312C8.85045 51.7969 8.71428 52.151 8.71428 52.5938V57.9062C8.71428 58.349 8.85045 58.7474 9.12277 59.1016C9.48586 59.3672 9.89435 59.5 10.3482 59.5H15.7946C16.2485 59.5 16.6116 59.3672 16.8839 59.1016C17.247 58.7474 17.4286 58.349 17.4286 57.9062V52.5938ZM17.4286 35.5938C17.4286 35.151 17.247 34.7969 16.8839 34.5312C16.6116 34.1771 16.2485 34 15.7946 34H10.3482C9.89435 34 9.48586 34.1771 9.12277 34.5312C8.85045 34.7969 8.71428 35.151 8.71428 35.5938V40.9062C8.71428 41.349 8.85045 41.7474 9.12277 42.1016C9.48586 42.3672 9.89435 42.5 10.3482 42.5H15.7946C16.2485 42.5 16.6116 42.3672 16.8839 42.1016C17.247 41.7474 17.4286 41.349 17.4286 40.9062V35.5938ZM34.8571 52.5938C34.8571 52.151 34.6756 51.7969 34.3125 51.5312C34.0402 51.1771 33.6771 51 33.2232 51H27.7768C27.3229 51 26.9144 51.1771 26.5513 51.5312C26.279 51.7969 26.1429 52.151 26.1429 52.5938V57.9062C26.1429 58.349 26.279 58.7474 26.5513 59.1016C26.9144 59.3672 27.3229 59.5 27.7768 59.5H33.2232C33.6771 59.5 34.0402 59.3672 34.3125 59.1016C34.6756 58.7474 34.8571 58.349 34.8571 57.9062V52.5938ZM34.8571 35.5938C34.8571 35.151 34.6756 34.7969 34.3125 34.5312C34.0402 34.1771 33.6771 34 33.2232 34H27.7768C27.3229 34 26.9144 34.1771 26.5513 34.5312C26.279 34.7969 26.1429 35.151 26.1429 35.5938V40.9062C26.1429 41.349 26.279 41.7474 26.5513 42.1016C26.9144 42.3672 27.3229 42.5 27.7768 42.5H33.2232C33.6771 42.5 34.0402 42.3672 34.3125 42.1016C34.6756 41.7474 34.8571 41.349 34.8571 40.9062V35.5938ZM52.2857 52.5938C52.2857 52.151 52.1042 51.7969 51.7411 51.5312C51.4687 51.1771 51.1057 51 50.6518 51H45.2054C44.7515 51 44.343 51.1771 43.9799 51.5312C43.7076 51.7969 43.5714 52.151 43.5714 52.5938V57.9062C43.5714 58.349 43.7076 58.7474 43.9799 59.1016C44.343 59.3672 44.7515 59.5 45.2054 59.5H50.6518C51.1057 59.5 51.4687 59.3672 51.7411 59.1016C52.1042 58.7474 52.2857 58.349 52.2857 57.9062V52.5938ZM52.2857 35.5938C52.2857 35.151 52.1042 34.7969 51.7411 34.5312C51.4687 34.1771 51.1057 34 50.6518 34H45.2054C44.7515 34 44.343 34.1771 43.9799 34.5312C43.7076 34.7969 43.5714 35.151 43.5714 35.5938V40.9062C43.5714 41.349 43.7076 41.7474 43.9799 42.1016C44.343 42.3672 44.7515 42.5 45.2054 42.5H50.6518C51.1057 42.5 51.4687 42.3672 51.7411 42.1016C52.1042 41.7474 52.2857 41.349 52.2857 40.9062V35.5938Z" fill="white"/>
</svg>
