<svg width="199" height="316" viewBox="0 0 199 316" fill="none" xmlns="http://www.w3.org/2000/svg">
<path d="M102.894 41.0815C101.728 40.0958 100.411 39.4743 98.9429 39.2171C97.4746 38.96 96.0279 39.0671 94.6028 39.5386C93.1776 40.01 91.9252 40.803 90.8456 41.9173L89.55 43.2031L88.2544 41.9173C87.1748 40.803 85.9224 40.01 84.4973 39.5386C83.0722 39.0671 81.6254 38.96 80.1571 39.2171C78.6888 39.4743 77.3716 40.0958 76.2056 41.0815C74.8669 42.1959 73.9384 43.5674 73.4201 45.1961C72.9019 46.8248 72.8155 48.4749 73.161 50.1465C73.5497 51.7752 74.3486 53.211 75.5578 54.4539L88.0601 67.2477C88.492 67.6763 88.9886 67.8906 89.55 67.8906C90.1114 67.8906 90.6081 67.6763 91.0399 67.2477L103.542 54.3896C104.751 53.1896 105.529 51.7752 105.874 50.1465C106.263 48.4749 106.198 46.8248 105.68 45.1961C105.162 43.5674 104.233 42.1959 102.894 41.0815Z" fill="black"/>
<path d="M102.894 41.0815C101.728 40.0958 100.411 39.4743 98.9429 39.2171C97.4746 38.96 96.0279 39.0671 94.6028 39.5386C93.1776 40.01 91.9252 40.803 90.8456 41.9173L89.55 43.2031L88.2544 41.9173C87.1748 40.803 85.9224 40.01 84.4973 39.5386C83.0722 39.0671 81.6254 38.96 80.1571 39.2171C78.6888 39.4743 77.3716 40.0958 76.2056 41.0815C74.8669 42.1959 73.9384 43.5674 73.4201 45.1961C72.9019 46.8248 72.8155 48.4749 73.161 50.1465C73.5497 51.7752 74.3486 53.211 75.5578 54.4539L88.0601 67.2477C88.492 67.6763 88.9886 67.8906 89.55 67.8906C90.1114 67.8906 90.6081 67.6763 91.0399 67.2477L103.542 54.3896C104.751 53.1896 105.529 51.7752 105.874 50.1465C106.263 48.4749 106.198 46.8248 105.68 45.1961C105.162 43.5674 104.233 42.1959 102.894 41.0815Z" fill="url(#paint0_linear)"/>
<path d="M137.898 78.8912C139.245 80.0591 140.21 81.5082 140.792 83.2385C141.471 85.2073 141.568 87.1878 141.083 89.18C140.598 91.1721 139.633 92.9073 138.19 94.3854C136.817 95.846 135.135 96.8207 133.143 97.3094L112.265 102.825C111.553 103 110.909 102.914 110.332 102.569C109.755 102.223 109.379 101.697 109.203 100.991L104.353 80.1531C103.887 78.132 103.963 76.1652 104.581 74.2528C105.271 72.3229 106.391 70.6807 107.941 69.3264C109.491 67.9721 111.302 67.1345 113.373 66.8135C115.187 66.5183 116.929 66.6905 118.598 67.3299C120.267 67.9694 121.686 68.9698 122.856 70.3312C124.025 71.6927 124.817 73.278 125.23 75.0873L125.757 77.2057L127.892 76.682C129.697 76.2016 131.479 76.1577 133.238 76.5504C134.997 76.9431 136.55 77.7234 137.898 78.8912Z" fill="black"/>
<path d="M137.898 78.8912C139.245 80.0591 140.21 81.5082 140.792 83.2385C141.471 85.2073 141.568 87.1878 141.083 89.18C140.598 91.1721 139.633 92.9073 138.19 94.3854C136.817 95.846 135.135 96.8207 133.143 97.3094L112.265 102.825C111.553 103 110.909 102.914 110.332 102.569C109.755 102.223 109.379 101.697 109.203 100.991L104.353 80.1531C103.887 78.132 103.963 76.1652 104.581 74.2528C105.271 72.3229 106.391 70.6807 107.941 69.3264C109.491 67.9721 111.302 67.1345 113.373 66.8135C115.187 66.5183 116.929 66.6905 118.598 67.3299C120.267 67.9694 121.686 68.9698 122.856 70.3312C124.025 71.6927 124.817 73.278 125.23 75.0873L125.757 77.2057L127.892 76.682C129.697 76.2016 131.479 76.1577 133.238 76.5504C134.997 76.9431 136.55 77.7234 137.898 78.8912Z" fill="url(#paint1_linear)"/>
<path d="M91.4853 81.5555C89.5486 80.6417 87.5405 80.2749 85.461 80.4552C83.3815 80.6355 81.4642 81.3007 79.7092 82.4507C77.9541 83.6008 76.55 85.1234 75.4969 87.0186L74.2143 89.2233L71.9929 87.9504C70.126 86.8317 68.1429 86.2099 66.0436 86.0848C63.9443 85.9597 61.9488 86.3351 60.057 87.2109C58.1653 88.0867 56.611 89.4008 55.3941 91.1532C53.9906 93.1415 53.2357 95.3302 53.1296 97.719C53.0234 100.108 53.5091 102.37 54.5865 104.507C55.7068 106.569 57.3114 108.224 59.4004 109.47L80.9782 122.275C81.7186 122.699 82.4685 122.81 83.2277 122.608C83.9869 122.406 84.5802 121.938 85.0078 121.203L97.2201 99.319C98.4171 97.2613 98.9519 95.0691 98.8245 92.7423C98.7398 90.3421 98.0498 88.134 96.7543 86.1179C95.4589 84.1018 93.7026 82.581 91.4853 81.5555Z" fill="black"/>
<path d="M91.4853 81.5555C89.5486 80.6417 87.5405 80.2749 85.461 80.4552C83.3815 80.6355 81.4642 81.3007 79.7092 82.4507C77.9541 83.6008 76.55 85.1234 75.4969 87.0186L74.2143 89.2233L71.9929 87.9504C70.126 86.8317 68.1429 86.2099 66.0436 86.0848C63.9443 85.9597 61.9488 86.3351 60.057 87.2109C58.1653 88.0867 56.611 89.4008 55.3941 91.1532C53.9906 93.1415 53.2357 95.3302 53.1296 97.719C53.0234 100.108 53.5091 102.37 54.5865 104.507C55.7068 106.569 57.3114 108.224 59.4004 109.47L80.9782 122.275C81.7186 122.699 82.4685 122.81 83.2277 122.608C83.9869 122.406 84.5802 121.938 85.0078 121.203L97.2201 99.319C98.4171 97.2613 98.9519 95.0691 98.8245 92.7423C98.7398 90.3421 98.0498 88.134 96.7543 86.1179C95.4589 84.1018 93.7026 82.581 91.4853 81.5555Z" fill="url(#paint2_linear)"/>
<path fill-rule="evenodd" clip-rule="evenodd" d="M141.697 197.371C141.567 197.243 141.373 196.986 141.114 196.6C138.134 193.514 135.932 190.492 134.506 187.535C132.174 182.392 131.008 175.77 131.008 167.669C131.008 160.212 128.676 153.718 124.012 148.189C119.348 142.66 113.389 139.189 106.133 137.774V133.724C106.133 132.052 105.486 130.638 104.19 129.481C103.024 128.195 101.599 127.552 99.9146 127.552C98.2304 127.552 96.7405 128.195 95.4449 129.481C94.2789 130.638 93.6959 132.052 93.6959 133.724V137.774C86.4407 139.189 80.481 142.66 75.8169 148.189C71.1529 153.718 68.8209 160.212 68.8209 167.669C68.8209 175.77 67.6548 182.392 65.3228 187.535C63.8977 190.492 61.6952 193.514 58.7154 196.6L58.1324 197.371C56.9664 198.657 56.3834 200.136 56.3834 201.807C56.3834 203.35 56.9664 204.765 58.1324 206.051C59.2984 207.208 60.7883 207.786 62.6021 207.786H137.227C139.041 207.786 140.531 207.208 141.697 206.051C142.863 204.765 143.446 203.35 143.446 201.807C143.446 200.136 142.863 198.657 141.697 197.371ZM69.5982 198.529C75.2987 190.942 78.149 180.72 78.149 167.862V167.669C78.149 163.812 79.1207 160.212 81.064 156.868C83.0074 153.525 85.6633 150.889 89.0318 148.961C92.4003 147.032 96.0279 146.068 99.9146 146.068C103.801 146.068 107.429 147.032 110.797 148.961C114.166 150.889 116.822 153.525 118.765 156.868C120.709 160.212 121.68 163.812 121.68 167.669V167.862C121.68 180.72 124.53 190.942 130.231 198.529H69.5982Z" fill="black"/>
<path fill-rule="evenodd" clip-rule="evenodd" d="M141.697 197.371C141.567 197.243 141.373 196.986 141.114 196.6C138.134 193.514 135.932 190.492 134.506 187.535C132.174 182.392 131.008 175.77 131.008 167.669C131.008 160.212 128.676 153.718 124.012 148.189C119.348 142.66 113.389 139.189 106.133 137.774V133.724C106.133 132.052 105.486 130.638 104.19 129.481C103.024 128.195 101.599 127.552 99.9146 127.552C98.2304 127.552 96.7405 128.195 95.4449 129.481C94.2789 130.638 93.6959 132.052 93.6959 133.724V137.774C86.4407 139.189 80.481 142.66 75.8169 148.189C71.1529 153.718 68.8209 160.212 68.8209 167.669C68.8209 175.77 67.6548 182.392 65.3228 187.535C63.8977 190.492 61.6952 193.514 58.7154 196.6L58.1324 197.371C56.9664 198.657 56.3834 200.136 56.3834 201.807C56.3834 203.35 56.9664 204.765 58.1324 206.051C59.2984 207.208 60.7883 207.786 62.6021 207.786H137.227C139.041 207.786 140.531 207.208 141.697 206.051C142.863 204.765 143.446 203.35 143.446 201.807C143.446 200.136 142.863 198.657 141.697 197.371ZM69.5982 198.529C75.2987 190.942 78.149 180.72 78.149 167.862V167.669C78.149 163.812 79.1207 160.212 81.064 156.868C83.0074 153.525 85.6633 150.889 89.0318 148.961C92.4003 147.032 96.0279 146.068 99.9146 146.068C103.801 146.068 107.429 147.032 110.797 148.961C114.166 150.889 116.822 153.525 118.765 156.868C120.709 160.212 121.68 163.812 121.68 167.669V167.862C121.68 180.72 124.53 190.942 130.231 198.529H69.5982Z" fill="url(#paint3_linear)"/>
<path d="M99.9146 226.302C103.283 226.302 106.198 225.081 108.66 222.638C111.121 220.323 112.352 217.43 112.352 213.958H87.4771C87.4771 217.43 88.7079 220.323 91.1695 222.638C93.6311 225.081 96.5461 226.302 99.9146 226.302Z" fill="black"/>
<path d="M99.9146 226.302C103.283 226.302 106.198 225.081 108.66 222.638C111.121 220.323 112.352 217.43 112.352 213.958H87.4771C87.4771 217.43 88.7079 220.323 91.1695 222.638C93.6311 225.081 96.5461 226.302 99.9146 226.302Z" fill="url(#paint4_linear)"/>
<path fill-rule="evenodd" clip-rule="evenodd" d="M29.85 0H169.15C177.442 0 184.49 2.88021 190.294 8.64062C196.098 14.401 199 21.3958 199 29.625V286.375C199 294.604 196.098 301.599 190.294 307.359C184.49 313.12 177.442 316 169.15 316H29.85C21.5583 316 14.5104 313.12 8.70625 307.359C2.90208 301.599 0 294.604 0 286.375V29.625C0 21.3958 2.90208 14.401 8.70625 8.64062C14.5104 2.88021 21.5583 0 29.85 0ZM85.1969 290.078C89.3427 294.193 94.1104 296.25 99.5 296.25C104.89 296.25 109.45 294.193 113.181 290.078C117.327 286.375 119.4 281.849 119.4 276.5C119.4 271.151 117.327 266.625 113.181 262.922C109.45 258.807 104.89 256.75 99.5 256.75C94.1104 256.75 89.3427 258.807 85.1969 262.922C81.4656 266.625 79.6 271.151 79.6 276.5C79.6 281.849 81.4656 286.375 85.1969 290.078ZM166.662 235.148C168.321 233.503 169.15 231.651 169.15 229.594V37.0312C169.15 34.974 168.321 33.3281 166.662 32.0938C165.419 30.4479 163.76 29.625 161.688 29.625H37.3125C35.2396 29.625 33.374 30.4479 31.7156 32.0938C30.4719 33.3281 29.85 34.974 29.85 37.0312V229.594C29.85 231.651 30.4719 233.503 31.7156 235.148C33.374 236.383 35.2396 237 37.3125 237H161.688C163.76 237 165.419 236.383 166.662 235.148Z" fill="black"/>
<path fill-rule="evenodd" clip-rule="evenodd" d="M29.85 0H169.15C177.442 0 184.49 2.88021 190.294 8.64062C196.098 14.401 199 21.3958 199 29.625V286.375C199 294.604 196.098 301.599 190.294 307.359C184.49 313.12 177.442 316 169.15 316H29.85C21.5583 316 14.5104 313.12 8.70625 307.359C2.90208 301.599 0 294.604 0 286.375V29.625C0 21.3958 2.90208 14.401 8.70625 8.64062C14.5104 2.88021 21.5583 0 29.85 0ZM85.1969 290.078C89.3427 294.193 94.1104 296.25 99.5 296.25C104.89 296.25 109.45 294.193 113.181 290.078C117.327 286.375 119.4 281.849 119.4 276.5C119.4 271.151 117.327 266.625 113.181 262.922C109.45 258.807 104.89 256.75 99.5 256.75C94.1104 256.75 89.3427 258.807 85.1969 262.922C81.4656 266.625 79.6 271.151 79.6 276.5C79.6 281.849 81.4656 286.375 85.1969 290.078ZM166.662 235.148C168.321 233.503 169.15 231.651 169.15 229.594V37.0312C169.15 34.974 168.321 33.3281 166.662 32.0938C165.419 30.4479 163.76 29.625 161.688 29.625H37.3125C35.2396 29.625 33.374 30.4479 31.7156 32.0938C30.4719 33.3281 29.85 34.974 29.85 37.0312V229.594C29.85 231.651 30.4719 233.503 31.7156 235.148C33.374 236.383 35.2396 237 37.3125 237H161.688C163.76 237 165.419 236.383 166.662 235.148Z" fill="url(#paint5_linear)"/>
<defs>
<linearGradient id="paint0_linear" x1="99.5" y1="0" x2="99.5" y2="316" gradientUnits="userSpaceOnUse">
<stop stop-color="#CB2D3E"/>
<stop offset="1" stop-color="#EF473A"/>
</linearGradient>
<linearGradient id="paint1_linear" x1="99.5" y1="0" x2="99.5" y2="316" gradientUnits="userSpaceOnUse">
<stop stop-color="#CB2D3E"/>
<stop offset="1" stop-color="#EF473A"/>
</linearGradient>
<linearGradient id="paint2_linear" x1="99.5" y1="0" x2="99.5" y2="316" gradientUnits="userSpaceOnUse">
<stop stop-color="#CB2D3E"/>
<stop offset="1" stop-color="#EF473A"/>
</linearGradient>
<linearGradient id="paint3_linear" x1="99.5" y1="0" x2="99.5" y2="316" gradientUnits="userSpaceOnUse">
<stop stop-color="#CB2D3E"/>
<stop offset="1" stop-color="#EF473A"/>
</linearGradient>
<linearGradient id="paint4_linear" x1="99.5" y1="0" x2="99.5" y2="316" gradientUnits="userSpaceOnUse">
<stop stop-color="#CB2D3E"/>
<stop offset="1" stop-color="#EF473A"/>
</linearGradient>
<linearGradient id="paint5_linear" x1="99.5" y1="0" x2="99.5" y2="316" gradientUnits="userSpaceOnUse">
<stop stop-color="#CB2D3E"/>
<stop offset="1" stop-color="#EF473A"/>
</linearGradient>
</defs>
</svg>
