<svg width="61" height="70" viewBox="0 0 61 70" fill="none" xmlns="http://www.w3.org/2000/svg">
<path d="M54.4643 8.75H47.9286V1.64062C47.9286 1.1849 47.747 0.820312 47.3839 0.546875C47.1116 0.182292 46.7485 0 46.2946 0H40.8482C40.3943 0 39.9859 0.182292 39.6228 0.546875C39.3504 0.820312 39.2143 1.1849 39.2143 1.64062V8.75H21.7857V1.64062C21.7857 1.1849 21.6042 0.820312 21.2411 0.546875C20.9688 0.182292 20.6057 0 20.1518 0H14.7054C14.2515 0 13.843 0.182292 13.4799 0.546875C13.2076 0.820312 13.0714 1.1849 13.0714 1.64062V8.75H6.53571C4.72024 8.75 3.17708 9.38802 1.90625 10.6641C0.635417 11.9401 0 13.4896 0 15.3125V63.4375C0 65.2604 0.635417 66.8099 1.90625 68.0859C3.17708 69.362 4.72024 70 6.53571 70H54.4643C56.2798 70 57.8229 69.362 59.0937 68.0859C60.3646 66.8099 61 65.2604 61 63.4375V15.3125C61 13.4896 60.3646 11.9401 59.0937 10.6641C57.8229 9.38802 56.2798 8.75 54.4643 8.75ZM53.6473 63.4375H7.35268C7.17113 63.4375 6.98958 63.3464 6.80804 63.1641C6.62649 62.9818 6.53571 62.7995 6.53571 62.6172V21.875H54.4643V62.6172C54.4643 62.7995 54.3735 62.9818 54.192 63.1641C54.0104 63.3464 53.8289 63.4375 53.6473 63.4375Z" fill="white"/>
<path d="M16.7648 40.9302L21.9729 42.8271C22.892 40.7422 23.9643 38.9307 25.1897 37.3926C26.4492 35.8545 27.7427 34.6924 29.0703 33.9062C26.6535 33.8037 24.3217 34.2651 22.0751 35.2905C19.8284 36.2817 17.9392 37.7344 16.4074 39.6484C16.2372 39.8535 16.1861 40.0928 16.2542 40.3662C16.3563 40.6396 16.5265 40.8276 16.7648 40.9302ZM23.5558 43.3911L35.7081 47.8516C36.3209 45.8008 36.6272 43.8525 36.6272 42.0068C36.6613 40.127 36.406 38.5547 35.8613 37.29C35.3507 36.0254 34.5678 35.2051 33.5126 34.8291C33.1722 34.6924 32.7807 34.624 32.3382 34.624C30.8744 34.624 29.3256 35.4443 27.6917 37.085C26.0578 38.6914 24.6791 40.7935 23.5558 43.3911ZM37.4953 36.9824C37.8357 37.8711 38.0739 38.8281 38.2101 39.8535C38.4824 42.3828 38.159 45.2368 37.24 48.4155L42.4481 50.3125C42.7204 50.415 42.9757 50.3979 43.214 50.2612C43.4523 50.0903 43.5714 49.8682 43.5714 49.5947C43.6395 47.1338 43.1289 44.7925 42.0396 42.5708C40.9844 40.3491 39.4696 38.4863 37.4953 36.9824ZM39.4866 56.875H27.2832L30.6021 47.6978L27.5385 46.6211L23.8111 56.875H11.7098C11.4715 56.875 11.2673 56.9434 11.0971 57.0801C10.9609 57.251 10.8929 57.4561 10.8929 57.6953V59.3359C10.8929 59.5752 10.9609 59.7632 11.0971 59.8999C11.2673 60.0708 11.4715 60.1562 11.7098 60.1562H39.4866C39.7249 60.1562 39.9121 60.0708 40.0483 59.8999C40.2185 59.7632 40.3036 59.5752 40.3036 59.3359V57.6953C40.3036 57.4561 40.2185 57.251 40.0483 57.0801C39.9121 56.9434 39.7249 56.875 39.4866 56.875Z" fill="white"/>
<path d="M48.3058 24.1394L48.8023 25.3756C48.8552 25.4819 48.928 25.555 49.0207 25.5949C49.1266 25.6215 49.2259 25.6082 49.3185 25.555L50.4702 24.8372C50.6159 24.7442 50.7615 24.7508 50.9071 24.8572C51.0659 24.9635 51.1189 25.1031 51.0659 25.2759L50.7482 26.5918C50.7218 26.6981 50.7416 26.7978 50.8078 26.8909C50.874 26.9706 50.96 27.0171 51.0659 27.0304L52.4162 27.1301C52.5883 27.1434 52.7008 27.2365 52.7538 27.4093C52.82 27.5821 52.7802 27.7283 52.6346 27.8479L51.6219 28.7052C51.5293 28.785 51.4829 28.878 51.4829 28.9844C51.4829 29.0907 51.5293 29.1838 51.6219 29.2635L52.6346 30.1208C52.7802 30.2405 52.82 30.3867 52.7538 30.5595C52.7008 30.7323 52.5883 30.8253 52.4162 30.8386L51.0659 30.9383C50.96 30.9516 50.874 31.0048 50.8078 31.0978C50.7416 31.1776 50.7218 31.2706 50.7482 31.377L51.0659 32.6929C51.1189 32.8657 51.0659 33.0052 50.9071 33.1116C50.7615 33.2179 50.6159 33.2246 50.4702 33.1315L49.3185 32.4137C49.2259 32.3606 49.1266 32.3539 49.0207 32.3938C48.928 32.4204 48.8552 32.4868 48.8023 32.5932L48.3058 33.8293C48.2397 34.0021 48.1139 34.0885 47.9286 34.0885C47.7432 34.0885 47.6175 34.0021 47.5513 33.8293L47.0549 32.5932C47.0019 32.4868 46.9225 32.4204 46.8166 32.3938C46.7239 32.3539 46.6313 32.3606 46.5386 32.4137L45.3869 33.1315C45.2413 33.2246 45.0891 33.2179 44.9302 33.1116C44.7846 33.0052 44.7382 32.8657 44.7912 32.6929L45.1089 31.377C45.1354 31.2706 45.1155 31.1776 45.0493 31.0978C44.9832 31.0048 44.8971 30.9516 44.7912 30.9383L43.4409 30.8386C43.2688 30.8253 43.1497 30.7323 43.0835 30.5595C43.0306 30.3867 43.0769 30.2405 43.2225 30.1208L44.2352 29.2635C44.3279 29.1838 44.3742 29.0907 44.3742 28.9844C44.3742 28.878 44.3279 28.785 44.2352 28.7052L43.2225 27.8479C43.0769 27.7283 43.0306 27.5821 43.0835 27.4093C43.1497 27.2365 43.2688 27.1434 43.4409 27.1301L44.7912 27.0304C44.8971 27.0171 44.9832 26.9706 45.0493 26.8909C45.1155 26.7978 45.1354 26.6981 45.1089 26.5918L44.7912 25.2759C44.7382 25.1031 44.7846 24.9635 44.9302 24.8572C45.0891 24.7508 45.2413 24.7442 45.3869 24.8372L46.5386 25.555C46.6313 25.6082 46.7239 25.6215 46.8166 25.5949C46.9225 25.555 47.0019 25.4819 47.0549 25.3756L47.5513 24.1394C47.6175 23.9666 47.7432 23.8802 47.9286 23.8802C48.1139 23.8802 48.2397 23.9666 48.3058 24.1394ZM50.6291 28.9844C50.6291 28.4926 50.5033 28.0406 50.2518 27.6286C50.0135 27.2165 49.6892 26.8909 49.2788 26.6516C48.8685 26.3991 48.4184 26.2728 47.9286 26.2728C47.4388 26.2728 46.9887 26.3991 46.5783 26.6516C46.1679 26.8909 45.837 27.2165 45.5855 27.6286C45.3472 28.0406 45.2281 28.4926 45.2281 28.9844C45.2281 29.4762 45.3472 29.9281 45.5855 30.3402C45.837 30.7522 46.1679 31.0845 46.5783 31.3371C46.9887 31.5763 47.4388 31.696 47.9286 31.696C48.4184 31.696 48.8685 31.5763 49.2788 31.3371C49.6892 31.0845 50.0135 30.7522 50.2518 30.3402C50.5033 29.9281 50.6291 29.4762 50.6291 28.9844ZM49.9937 28.9844C49.9937 29.3566 49.901 29.7021 49.7157 30.0212C49.5303 30.3402 49.2788 30.5927 48.9611 30.7788C48.6434 30.9649 48.2992 31.0579 47.9286 31.0579C47.5579 31.0579 47.2137 30.9649 46.896 30.7788C46.5783 30.5927 46.3268 30.3402 46.1415 30.0212C45.9561 29.7021 45.8635 29.3566 45.8635 28.9844C45.8635 28.6122 45.9561 28.2666 46.1415 27.9476C46.3268 27.6286 46.5783 27.376 46.896 27.1899C47.2137 27.0039 47.5579 26.9108 47.9286 26.9108C48.2992 26.9108 48.6434 27.0039 48.9611 27.1899C49.2788 27.376 49.5303 27.6286 49.7157 27.9476C49.901 28.2666 49.9937 28.6122 49.9937 28.9844Z" fill="white"/>
</svg>
