<svg width="641" height="1018" viewBox="0 0 641 1018" fill="none" xmlns="http://www.w3.org/2000/svg">
<path d="M331.434 132.345C327.678 129.169 323.435 127.167 318.706 126.339C313.976 125.51 309.316 125.855 304.725 127.374C300.135 128.893 296.101 131.447 292.623 135.037L288.45 139.18L284.277 135.037C280.799 131.447 276.765 128.893 272.175 127.374C267.584 125.855 262.924 125.51 258.195 126.339C253.465 127.167 249.222 129.169 245.466 132.345C241.154 135.935 238.163 140.353 236.494 145.6C234.825 150.847 234.547 156.163 235.659 161.548C236.911 166.795 239.485 171.42 243.38 175.424L283.651 216.64C285.042 218.021 286.642 218.711 288.45 218.711C290.258 218.711 291.858 218.021 293.249 216.64L333.52 175.217C337.415 171.351 339.919 166.795 341.032 161.548C342.284 156.163 342.075 150.847 340.406 145.6C338.737 140.353 335.746 135.935 331.434 132.345Z" fill="black"/>
<path d="M444.183 254.15C448.524 257.912 451.632 262.58 453.507 268.154C455.694 274.497 456.007 280.877 454.444 287.295C452.881 293.713 449.774 299.303 445.124 304.064C440.703 308.77 435.284 311.91 428.867 313.484L361.616 331.253C359.324 331.815 357.249 331.54 355.392 330.427C353.534 329.314 352.322 327.62 351.755 325.345L336.13 258.215C334.63 251.704 334.876 245.368 336.868 239.207C339.089 232.989 342.696 227.699 347.688 223.336C352.681 218.973 358.514 216.275 365.187 215.241C371.03 214.29 376.639 214.845 382.016 216.905C387.393 218.965 391.964 222.188 395.732 226.573C399.499 230.959 402.048 236.067 403.378 241.895L405.077 248.719L411.952 247.032C417.768 245.485 423.508 245.344 429.173 246.609C434.838 247.874 439.841 250.387 444.183 254.15Z" fill="black"/>
<path d="M294.684 262.732C288.446 259.789 281.977 258.607 275.279 259.188C268.581 259.769 262.405 261.912 256.752 265.617C251.098 269.321 246.576 274.227 243.183 280.332L239.052 287.435L231.897 283.334C225.883 279.73 219.496 277.727 212.733 277.324C205.971 276.921 199.543 278.13 193.45 280.952C187.357 283.773 182.35 288.006 178.43 293.652C173.909 300.057 171.478 307.108 171.136 314.804C170.794 322.499 172.358 329.788 175.829 336.67C179.437 343.315 184.606 348.644 191.335 352.658L260.839 393.91C263.224 395.277 265.64 395.635 268.085 394.984C270.531 394.334 272.442 392.825 273.819 390.458L313.156 319.958C317.012 313.329 318.735 306.267 318.324 298.771C318.051 291.039 315.829 283.925 311.656 277.43C307.483 270.935 301.826 266.036 294.684 262.732Z" fill="black"/>
<path fill-rule="evenodd" clip-rule="evenodd" d="M456.42 635.836C456.003 635.422 455.377 634.593 454.543 633.35C444.944 623.409 437.85 613.675 433.259 604.148C425.748 587.579 421.992 566.246 421.992 540.15C421.992 516.125 414.48 495.206 399.457 477.395C384.433 459.583 365.237 448.399 341.867 443.842V430.794C341.867 425.409 339.78 420.853 335.607 417.125C331.851 412.983 327.261 410.911 321.835 410.911C316.41 410.911 311.611 412.983 307.438 417.125C303.682 420.853 301.804 425.409 301.804 430.794V443.842C278.434 448.399 259.238 459.583 244.214 477.395C229.191 495.206 221.679 516.125 221.679 540.15C221.679 566.246 217.923 587.579 210.412 604.148C205.821 613.675 198.727 623.409 189.128 633.35L187.251 635.836C183.495 639.978 181.617 644.742 181.617 650.127C181.617 655.097 183.495 659.654 187.251 663.796C191.006 667.524 195.806 669.388 201.648 669.388H442.023C447.865 669.388 452.665 667.524 456.42 663.796C460.176 659.654 462.054 655.097 462.054 650.127C462.054 644.742 460.176 639.978 456.42 635.836ZM224.183 639.564C242.545 615.125 251.726 582.194 251.726 540.771V540.15C251.726 527.723 254.856 516.125 261.116 505.355C267.376 494.585 275.931 486.093 286.781 479.88C297.631 473.667 309.316 470.56 321.835 470.56C334.355 470.56 346.04 473.667 356.89 479.88C367.74 486.093 376.295 494.585 382.555 505.355C388.815 516.125 391.945 527.723 391.945 540.15V540.771C391.945 582.194 401.126 615.125 419.488 639.564H224.183Z" fill="black"/>
<path d="M321.835 729.036C332.686 729.036 342.075 725.101 350.004 717.231C357.933 709.775 361.898 700.455 361.898 689.271H281.773C281.773 700.455 285.738 709.775 293.667 717.231C301.596 725.101 310.985 729.036 321.835 729.036Z" fill="black"/>
<path fill-rule="evenodd" clip-rule="evenodd" d="M96.15 0H544.85C571.558 0 594.26 9.27864 612.956 27.8359C631.652 46.3932 641 68.9271 641 95.4375V922.563C641 949.073 631.652 971.607 612.956 990.164C594.26 1008.72 571.558 1018 544.85 1018H96.15C69.4417 1018 46.7396 1008.72 28.0438 990.164C9.34792 971.607 0 949.073 0 922.563V95.4375C0 68.9271 9.34792 46.3932 28.0438 27.8359C46.7396 9.27864 69.4417 0 96.15 0ZM274.428 934.492C287.782 947.747 303.14 954.375 320.5 954.375C337.86 954.375 352.55 947.747 364.569 934.492C377.923 922.563 384.6 907.982 384.6 890.75C384.6 873.518 377.923 858.938 364.569 847.008C352.55 833.753 337.86 827.125 320.5 827.125C303.14 827.125 287.782 833.753 274.428 847.008C262.409 858.938 256.4 873.518 256.4 890.75C256.4 907.982 262.409 922.563 274.428 934.492ZM536.837 757.535C542.179 752.233 544.85 746.268 544.85 739.641V119.297C544.85 112.669 542.179 107.367 536.837 103.391C532.831 98.0885 527.49 95.4375 520.813 95.4375H120.188C113.51 95.4375 107.501 98.0885 102.159 103.391C98.1531 107.367 96.15 112.669 96.15 119.297V739.641C96.15 746.268 98.1531 752.233 102.159 757.535C107.501 761.512 113.51 763.5 120.188 763.5H520.813C527.49 763.5 532.831 761.512 536.837 757.535Z" fill="black"/>
</svg>
